# xmcd CD database file
#
# Track frame offsets:
#	150
#	18220
#	42371
#	61423
#	83517
#	104828
#	121330
#	138412
#	154817
#	173666
#	192712
#	213338
#	230366
#	246739
#	264755
#
# Disc length: 3793 seconds
#
# Revision: 0
# Processed by: cddbd v1.5.2PL0 Copyright (c) Steve Scherf et al.
# Submitted via: CDex 1.51
#
DISCID=d00ecf0f
DTITLE=complex - Sleepless Salsa in Cuba
DYEAR=2005
DGENRE=Salsa
TTITLE0=Llorara Las Penas
TTITLE1=Seduce me
TTITLE2=Buleria
TTITLE3=Hasta Que Vuelvas
TTITLE4=Traicion
TTITLE5=Torero
TTITLE6=Asi Es La Vida
TTITLE7=Carito
TTITLE8=A fuego Lento
TTITLE9=Bonito
TTITLE10=Barco A La Deriva
TTITLE11=Baila Casanova
TTITLE12=Luna Nueva
TTITLE13=Una Emocion Para Siempre
TTITLE14=Mariposa Traicionera
EXTD=YEAR: 2005
EXTT0=
EXTT1=
EXTT2=
EXTT3=
EXTT4=
EXTT5=
EXTT6=
EXTT7=
EXTT8=
EXTT9=
EXTT10=
EXTT11=
EXTT12=
EXTT13=
EXTT14=
PLAYORDER=
